<?xml version="1.0" encoding="UTF-8" standalone="no"?>
<!-- Created with Inkscape (http://www.inkscape.org/) -->

<svg
   xmlns:dc="http://purl.org/dc/elements/1.1/"
   xmlns:cc="http://creativecommons.org/ns#"
   xmlns:rdf="http://www.w3.org/1999/02/22-rdf-syntax-ns#"
   xmlns:svg="http://www.w3.org/2000/svg"
   xmlns="http://www.w3.org/2000/svg"
   xmlns:sodipodi="http://sodipodi.sourceforge.net/DTD/sodipodi-0.dtd"
   xmlns:inkscape="http://www.inkscape.org/namespaces/inkscape"
   width="16"
   height="20"
   viewBox="0 0 20.902083 25.664584"
   version="1.1"
   id="svg8"
   inkscape:export-filename="C:\Users\Kyle\Documents\relic.png"
   inkscape:export-xdpi="96"
   inkscape:export-ydpi="96"
   inkscape:version="0.92.2 (5c3e80d, 2017-08-06)"
   sodipodi:docname="relic.svg">
  <defs
     id="defs2" />
  <sodipodi:namedview
     id="base"
     pagecolor="#ffffff"
     bordercolor="#666666"
     borderopacity="1.0"
     inkscape:pageopacity="0.0"
     inkscape:pageshadow="2"
     inkscape:zoom="6.6235915"
     inkscape:cx="-17.730584"
     inkscape:cy="31.821558"
     inkscape:document-units="mm"
     inkscape:current-layer="layer2"
     showgrid="false"
     units="px"
     inkscape:snap-global="false"
     inkscape:window-width="2160"
     inkscape:window-height="1346"
     inkscape:window-x="-11"
     inkscape:window-y="-11"
     inkscape:window-maximized="1" />
  <metadata
     id="metadata5">
    <rdf:RDF>
      <cc:Work
         rdf:about="">
        <dc:format>image/svg+xml</dc:format>
        <dc:type
           rdf:resource="http://purl.org/dc/dcmitype/StillImage" />
        <dc:title></dc:title>
      </cc:Work>
    </rdf:RDF>
  </metadata>
  <g
     inkscape:label="Layer 1"
     inkscape:groupmode="layer"
     id="layer1"
     transform="translate(0,-271.33538)">
    <rect
       style="fill:#00000f;fill-opacity:0;stroke:none;stroke-width:0.01;stroke-linejoin:round;stroke-miterlimit:4;stroke-dasharray:none;stroke-opacity:1"
       id="rect4782"
       width="21.610569"
       height="27.921972"
       x="-0.4394016"
       y="270.43613" />
  </g>
  <g
     inkscape:groupmode="layer"
     id="layer2"
     inkscape:label="Thumbnail">
    <path
       style="fill:#9d9d9d;fill-opacity:1;stroke:none;stroke-width:0.26499999;stroke-linecap:butt;stroke-linejoin:miter;stroke-miterlimit:4;stroke-dasharray:none;stroke-opacity:1"
       d="m 11.364888,-1.8319679 c -0.165502,3e-7 -0.278536,0.047542 -0.278536,0.047542 C 9.9000296,0.92722421 8.0358924,0.89861491 8.0358924,0.89861491 7.3579931,3.2430147 5.04176,2.3677757 5.04176,2.3677757 4.6048906,2.5998632 4.2527272,2.8294024 3.9575885,3.0530053 c 0.3296171,0.01005 0.7439242,0.015503 1.2500528,0.015503 0.1502169,0 0.6946357,-0.031012 1.633492,-0.093018 0.9451152,-0.067173 1.5428105,-0.1007689 1.7931722,-0.1007689 0.6571993,0 1.2488092,0.074945 1.7745685,0.2247924 0.52576,0.1498473 0.964142,0.3488393 1.314649,0.5968627 0.356765,0.2480233 0.625673,0.532298 0.807186,0.852661 0.181512,0.3151966 0.272334,0.6403031 0.272334,0.976168 0,0.3461991 -0.09387,0.6821596 -0.281636,1.0076903 -0.187772,0.3255306 -0.47241,0.6227265 -0.854211,0.8914185 -0.381802,0.2635247 -0.873461,0.48836 -1.474329,0.6743774 l 0.422713,0.5270997 c 0.58835,0.7337356 1.07645,1.3281276 1.46451,1.7828366 0.388061,0.449543 0.804111,0.88319 1.248503,1.30173 0.450651,0.418539 0.907806,0.759668 1.370975,1.023193 0.469429,0.258358 0.926068,0.403079 1.370459,0.434082 0.118922,0.0155 0.178801,0.06719 0.178801,0.155029 0,0.04651 -0.02842,0.0801 -0.08475,0.100769 -0.05633,0.02584 -0.190785,0.03876 -0.403592,0.03876 -0.607128,0 -1.192135,-0.111126 -1.755449,-0.333313 -0.562752,-0.216805 -1.097503,-0.511124 -1.604036,-0.882634 l -0.001,0.0217 c 0,0.185394 -0.0155,0.695349 -0.04651,1.529622 -0.0052,0.208568 -0.0103,0.779277 -0.0155,1.71204 -0.0052,0.92697 -0.0103,1.732233 -0.0155,2.415873 0,0.869034 0.0078,1.480073 0.02325,1.83348 0.0155,0.347613 0.05942,0.614556 0.131775,0.799951 0.07235,0.185393 0.180867,0.306896 0.325561,0.364836 0.149861,0.05794 0.403077,0.112708 0.759644,0.164847 0.232544,0.02317 0.348816,0.06103 0.348816,0.113172 0,0.115878 -0.0052,0.185603 -0.0155,0.208773 -0.07751,0.01158 -0.178283,0.01705 -0.302307,0.01705 -0.315226,-0.02317 -0.591695,-0.0406 -0.829407,-0.05219 -0.346231,-0.03476 -0.625284,-0.05219 -0.837158,-0.05219 -0.501261,0 -1.051615,0.05229 -1.651062,0.156579 -0.3307292,0.06374 -0.5115968,0.0956 -0.5426028,0.0956 -0.077514,0 -0.1343583,-0.02043 -0.1705324,-0.06098 -0.031006,-0.04056 -0.064596,-0.115743 -0.1007689,-0.225826 0.067179,-0.02317 0.2273768,-0.06949 0.4805909,-0.139009 0.3617352,-0.0927 0.6201172,-0.176861 0.7751462,-0.252181 0.160197,-0.07532 0.260967,-0.167937 0.302308,-0.278019 0.04134,-0.110078 0.06201,-0.28388 0.06201,-0.521416 0,-0.283885 0.02067,-0.611064 0.06201,-0.981852 0,0.03476 0.0052,-0.309851 0.0155,-1.034045 0.01034,-0.724195 0.01805,-1.237143 0.02325,-1.538408 0.0052,-0.307058 0.0078,-0.672093 0.0078,-1.095023 0,-1.239821 -0.0052,-2.126262 -0.0155,-2.659269 -0.0052,-0.533008 -0.02067,-0.944356 -0.04651,-1.234034 -0.0163,-0.186355 -0.04179,-0.335912 -0.0708,-0.470255 -0.0034,-0.0035 -0.007,-0.0069 -0.01034,-0.01033 -0.39432,-0.408205 -0.860603,-0.927135 -1.3988812,-1.557528 L 8.5686764,8.2459698 c -0.8261935,0 -1.5116685,-0.033596 -2.0562051,-0.1007692 l -0.018604,1.8603514 c 0,0.392704 0.012688,0.83152 0.037724,1.317233 0.031295,0.485712 0.096742,0.829425 0.1968873,1.030944 0.050072,0.124012 0.1348094,0.211879 0.2537312,0.26355 0.125181,0.05167 0.4006913,0.124032 0.8263062,0.217041 0.1376989,0.02584 0.206189,0.06719 0.206189,0.124024 0,0.113677 -0.043632,0.170532 -0.1312583,0.170532 -0.1001445,0 -0.3629675,-0.02584 -0.7885821,-0.07752 -0.5382779,-0.04134 -0.8670647,-0.06201 -0.9859864,-0.06201 -0.607127,0 -1.2327234,0.03618 -1.8774048,0.108521 -0.043813,0 -0.09709,0.0052 -0.1596802,0.0155 -0.1251808,0 -0.1881021,-0.04652 -0.1881021,-0.139527 0,-0.05167 0.022332,-0.09044 0.066146,-0.116272 0.050072,-0.02583 0.1561084,-0.05685 0.3188436,-0.09302 0.2816568,-0.06201 0.4851177,-0.155041 0.6102987,-0.279053 0.1251805,-0.129179 0.2160032,-0.377273 0.2723346,-0.74414 0.056331,-0.372035 0.087792,-0.96591 0.094051,-1.782321 V 6.532896 C 5.2578833,5.6958173 5.2512806,5.0812677 5.2262449,4.6885641 5.2074677,4.2958606 5.1577507,4.009002 5.0763831,3.8281516 4.9950155,3.6421342 4.8696895,3.5180872 4.7006954,3.4560813 4.5317013,3.3940754 4.2658358,3.3449735 3.9028113,3.3088034 l 0.03514,-0.2408121 C 2.422312,4.225714 2.6124508,5.1924094 2.6124508,5.1924094 1.7933226,5.8985595 0.69163792,6.293634 0.69163792,6.293634 c 0.50842468,0.4519301 0,2.62723 0,2.62723 -1.27106128,3.75665 -0.14107665,3.727938 -0.14107665,3.727938 l -0.0284221,0.819588 c -1.35579856,0.62141 0.19792074,2.937288 0.19792074,2.937288 1.12983209,0.42369 0.84749339,2.06189 0.84749339,2.06189 l 0.4237469,0.113171 c 2.7680888,4.03915 7.8522337,4.236951 7.8522337,4.236951 3.6719551,3.135281 4.8017741,-1.751314 4.8017741,-1.751314 1.892469,-0.22597 2.796212,-1.440739 2.796212,-1.440739 4.3781,0.93211 2.655135,-5.39502 2.655135,-5.39502 l 0.05633,-0.875398 C 21.169834,12.225389 20.83098,10.417413 20.83098,10.417413 20.80273,7.2538826 17.950019,5.9830587 17.950019,5.9830587 20.124946,4.7119988 15.153807,1.0117861 15.153807,1.0117861 14.19345,2.3110861 12.639749,2.0287783 12.639749,2.0287783 12.830408,-1.4030867 11.8614,-1.8319689 11.364891,-1.8319679 Z M 3.9379514,3.0679913 c 0.00645,-0.00492 0.013128,-0.010055 0.019637,-0.014986 -0.00463,-1.413e-4 -0.012973,1.431e-4 -0.01757,0 z m 4.3868122,0.1400431 c -0.2753979,0 -0.5884545,0.031012 -0.9389607,0.093018 C 7.0415557,3.3578907 6.8411372,3.4509259 6.7848058,3.5801047 6.6408482,3.8332954 6.5687984,5.2076325 6.5687984,7.7033674 c 0.4193559,0.082674 0.9267452,0.1240234 1.5213542,0.1240234 0.3004341,0 0.6165334,-0.01809 0.9482627,-0.05426 0.3379882,-0.03617 0.6819886,-0.1162836 1.0324947,-0.2402954 0.356766,-0.1240115 0.663737,-0.3333408 0.920358,-0.6278686 0.25662,-0.2945276 0.384472,-0.6899275 0.384472,-1.1859739 0,-0.3513667 -0.112638,-0.717822 -0.337964,-1.1001915 C 10.81871,4.2312647 10.477752,3.9004725 10.014583,3.6266134 9.5514138,3.3475873 8.988222,3.2080344 8.3247636,3.2080344 Z"
       id="path4597"
       inkscape:connector-curvature="0" />
    <flowRoot
       xml:space="preserve"
       id="flowRoot4714"
       style="fill:black;fill-opacity:1;stroke:none;font-family:sans-serif;font-style:normal;font-weight:normal;font-size:40px;line-height:1.25;letter-spacing:0px;word-spacing:0px"><flowRegion
         id="flowRegion4716"><rect
           id="rect4718"
           width="63.107758"
           height="73.525063"
           x="9.0585299"
           y="36.005901" /></flowRegion><flowPara
         id="flowPara4720"></flowPara></flowRoot>  </g>
  <g
     inkscape:groupmode="layer"
     id="layer3"
     inkscape:label="Circles" />
</svg>
